<svg id="Layer_1" data-name="Layer 1" xmlns="http://www.w3.org/2000/svg" viewBox="0 0 487.4 1212.05"><defs><style>.cls-1{font-size:56px;fill:#006555;font-family:AWConquerorDidot-Light, AW Conqueror Didot;}.cls-18,.cls-2{font-size:9px;}.cls-2{fill:#f21414;}.cls-16,.cls-18,.cls-2{font-family:PrestigeEliteStd-Bd, Prestige Elite Std;}.cls-16,.cls-18,.cls-2,.cls-5{font-weight:700;}.cls-15,.cls-3,.cls-4{font-size:12px;}.cls-15,.cls-3{fill:#241f20;}.cls-3{font-family:Banco, Banco;}.cls-4{fill:#302f2f;font-family:MinionPro-Regular, Minion Pro;}.cls-5{font-size:5px;fill:#0f0ff2;font-family:Brown-Bold, Brown;}.cls-6{letter-spacing:0.07em;}.cls-7{letter-spacing:0.06em;}.cls-8{letter-spacing:0.03em;}.cls-9{letter-spacing:0.05em;}.cls-10{letter-spacing:0em;}.cls-11{letter-spacing:-0.01em;}.cls-12{letter-spacing:0em;}.cls-13{fill:#210ced;opacity:0.61;}.cls-14{fill:#f20c0c;}.cls-15{font-family:jeanne-Regular, jeanne;}.cls-17{font-family:MyriadPro-Regular, Myriad Pro;}.cls-18{fill:#1823ed;}</style></defs><title>dialogue-ok</title><text class="cls-1" transform="translate(65.71 147.02)"> </text><text class="cls-2" transform="translate(115.1 160.38)">Ce serait pas mal que je puisse lui parler avant </text><text class="cls-2" transform="translate(206.9 171.18)">de m’attaquer au premier andro.</text><text class="cls-3" transform="translate(371.8 349.75) scale(1 1.02)"> </text><text class="cls-4" transform="translate(322.49 422.65)"> </text><text class="cls-5" transform="translate(218.3 32.93)">5<tspan class="cls-6" x="2.82" y="0">4</tspan><tspan class="cls-7" x="6.25" y="0">/</tspan><tspan x="8.82" y="0">1</tspan><tspan class="cls-8" x="10.94" y="0">3</tspan><tspan class="cls-9" x="13.96" y="0">/</tspan><tspan class="cls-10" x="16.48" y="0">2</tspan><tspan x="19.18" y="0">0</tspan><tspan class="cls-11" x="22.18" y="0">6</tspan><tspan class="cls-12" x="25.09" y="0">5</tspan></text><text class="cls-3" transform="translate(391 606.16) scale(1 1.02)"> </text><path class="cls-13" d="M172.59,1070.33h12.47c3.41,0,6.15,5.87,6.15,13.16v48.73c0,2.84-.41,6.94-2.82,9.07,2.41,2.31,2.82,6.41,2.82,9.25v48.73c0,7.3-2.74,13.16-6.15,13.34H172.59Zm6.15,65.8h6.32v-54.41h-6.32Zm0,64.92h6.32v-53.54h-6.32Z"/><path class="cls-13" d="M201.1,1178.64l-1.58,34h-5.73l7.4-142.28h6.32l7.4,142.28h-6.15l-1.5-34Zm5.65-11.38-2.58-56.2-2.58,56.2Z"/><path class="cls-13" d="M231.44,1070.33h6.07l-8.89,142.28h-5.15l-8.56-142.28h6.48l4.82,100.84Z"/><path class="cls-13" d="M246.32,1070.33v130.9h6.32v-130.9h6.15v129.11c0,7.3-2.74,13.16-6.15,13.16h-6.32c-3.32,0-6.07-5.87-6.07-13.16V1070.33Z"/><path class="cls-13" d="M264.45,1070.33h12.47c3.32,0,6.07,5.87,6.07,13.16v50.87c0,6.4-2.08,11.74-4.91,13l6.07,65.27H278l-5.57-65.09H270.6v65.09h-6.15Zm6.15,65.8h6.32v-54.41H270.6Z"/><path class="cls-13" d="M293.71,1201.23h9.06v11.38H287.56V1070.33h15.21v11.39h-9.06v54.06h7.73v11.38h-7.73Z"/><circle class="cls-14" cx="65.71" cy="375.67" r="3.67"/><text class="cls-15" transform="translate(145.29 638.2)">LE NEXUS<tspan class="cls-16" x="57.6" y="0">-6</tspan><tspan x="72" y="0" xml:space="preserve"> EST D</tspan><tspan class="cls-17" x="115.2" y="0">i</tspan><tspan x="118.01" y="0">FFERENT</tspan><tspan class="cls-16" x="168.41" y="0">.</tspan></text><text class="cls-2" transform="translate(149.5 64.48)">Vous rentrez bougrement tôt......</text><text class="cls-18" transform="translate(218.3 95.68)">J’ai ce que vous m’avez demandé</text><text class="cls-18" transform="translate(149.5 120.88)">Comment va Dave ?</text><text class="cls-18" transform="translate(110.37 230.32)">Polokov se fait passer pour un spécial, <tspan x="0" y="10.8">un débile très dégradé. </tspan><tspan x="0" y="21.6">C’est comme ça que Dave l’a eu dans le baba ;</tspan><tspan x="29.67" y="54" xml:space="preserve"> Polokov se comporte tellement comme une tête </tspan><tspan x="13.47" y="64.8">d’épingle que Dave a fini par oublier. Vous êtes </tspan><tspan x="13.47" y="75.6">sûr du Voigt-Kampff, maintenant? Absolument sûr, </tspan><tspan x="72.87" y="86.4">après ce qui s’est passé à Seattle ?…</tspan></text><text class="cls-5" transform="translate(223.97 360.13)">5<tspan class="cls-6" x="2.82" y="0">4</tspan><tspan class="cls-7" x="6.25" y="0">/</tspan><tspan x="8.82" y="0">1</tspan><tspan class="cls-8" x="10.94" y="0">3</tspan><tspan class="cls-9" x="13.96" y="0">/</tspan><tspan class="cls-10" x="16.48" y="0">2</tspan><tspan x="19.18" y="0">0</tspan><tspan class="cls-11" x="22.18" y="0">6</tspan><tspan class="cls-12" x="25.09" y="0">5</tspan></text><text class="cls-18" transform="translate(270.16 412.88)">Comment va Dave ?</text><text class="cls-2" transform="translate(97.28 457.5)">Polokov se comporte tellement </text><text class="cls-2" transform="translate(97.28 475.23)">comme une tête d’épingle que Dave </text><text class="cls-2" transform="translate(97.28 493.3)">a fini par l’oublier.</text><text class="cls-18" transform="translate(155.8 546.24)">Bon, je vous crois. Mais nous ne pouvons pas nous <tspan x="118.8" y="10.8">permettre une seule bavure.</tspan></text></svg>